<?xml version="1.0"?><svg fill="#93d94e" xmlns="http://www.w3.org/2000/svg"  viewBox="0 0 80 80" width="40px" height="40px">    <path d="M 19 9 C 16.794 9 15 10.794 15 13 L 15 22 C 15 23.193 15.525422 24.267 16.357422 25 C 15.525422 25.733 15 26.807 15 28 L 15 37 C 15 38.193 15.525422 39.267 16.357422 40 C 15.525422 40.733 15 41.807 15 43 L 15 52 C 15 53.193 15.525422 54.267 16.357422 55 C 15.525422 55.733 15 56.807 15 58 L 15 67 C 15 69.206 16.794 71 19 71 L 50.537109 71 C 49.557109 70.436 48.651172 69.763 47.826172 69 L 19 69 C 17.897 69 17 68.103 17 67 L 17 58 C 17 56.897 17.897 56 19 56 L 19 54 C 17.897 54 17 53.103 17 52 L 17 43 C 17 41.897 17.897 41 19 41 L 19 39 C 17.897 39 17 38.103 17 37 L 17 28 C 17 26.897 17.897 26 19 26 L 19 24 C 17.897 24 17 23.103 17 22 L 17 13 C 17 11.897 17.897 11 19 11 L 61 11 C 62.103 11 63 11.897 63 13 L 63 22 C 63 23.103 62.103 24 61 24 L 61 26 C 62.103 26 63 26.897 63 28 L 63 37 C 63 38.103 62.103 39 61 39 L 61 41 C 62.103 41 63 41.897 63 43 L 63 43.871094 C 63.69 44.115094 64.361 44.400281 65 44.738281 L 65 43 C 65 41.807 64.474578 40.733 63.642578 40 C 64.474578 39.267 65 38.193 65 37 L 65 28 C 65 26.807 64.474578 25.733 63.642578 25 C 64.474578 24.267 65 23.193 65 22 L 65 13 C 65 10.794 63.206 9 61 9 L 19 9 z M 45 16 L 45 18 L 46 18 L 50 18 L 51 18 L 51 16 L 50 16 L 46 16 L 45 16 z M 22 24 A 1 1 0 0 0 21 25 A 1 1 0 0 0 22 26 A 1 1 0 0 0 23 25 A 1 1 0 0 0 22 24 z M 26 24 A 1 1 0 0 0 25 25 A 1 1 0 0 0 26 26 A 1 1 0 0 0 27 25 A 1 1 0 0 0 26 24 z M 30 24 A 1 1 0 0 0 29 25 A 1 1 0 0 0 30 26 A 1 1 0 0 0 31 25 A 1 1 0 0 0 30 24 z M 34 24 A 1 1 0 0 0 33 25 A 1 1 0 0 0 34 26 A 1 1 0 0 0 35 25 A 1 1 0 0 0 34 24 z M 38 24 A 1 1 0 0 0 37 25 A 1 1 0 0 0 38 26 A 1 1 0 0 0 39 25 A 1 1 0 0 0 38 24 z M 42 24 A 1 1 0 0 0 41 25 A 1 1 0 0 0 42 26 A 1 1 0 0 0 43 25 A 1 1 0 0 0 42 24 z M 46 24 A 1 1 0 0 0 45 25 A 1 1 0 0 0 46 26 A 1 1 0 0 0 47 25 A 1 1 0 0 0 46 24 z M 50 24 A 1 1 0 0 0 49 25 A 1 1 0 0 0 50 26 A 1 1 0 0 0 51 25 A 1 1 0 0 0 50 24 z M 54 24 A 1 1 0 0 0 53 25 A 1 1 0 0 0 54 26 A 1 1 0 0 0 55 25 A 1 1 0 0 0 54 24 z M 58 24 A 1 1 0 0 0 57 25 A 1 1 0 0 0 58 26 A 1 1 0 0 0 59 25 A 1 1 0 0 0 58 24 z M 45 31 L 45 33 L 46 33 L 50 33 L 51 33 L 51 31 L 50 31 L 46 31 L 45 31 z M 22 39 A 1 1 0 0 0 21 40 A 1 1 0 0 0 22 41 A 1 1 0 0 0 23 40 A 1 1 0 0 0 22 39 z M 26 39 A 1 1 0 0 0 25 40 A 1 1 0 0 0 26 41 A 1 1 0 0 0 27 40 A 1 1 0 0 0 26 39 z M 30 39 A 1 1 0 0 0 29 40 A 1 1 0 0 0 30 41 A 1 1 0 0 0 31 40 A 1 1 0 0 0 30 39 z M 34 39 A 1 1 0 0 0 33 40 A 1 1 0 0 0 34 41 A 1 1 0 0 0 35 40 A 1 1 0 0 0 34 39 z M 38 39 A 1 1 0 0 0 37 40 A 1 1 0 0 0 38 41 A 1 1 0 0 0 39 40 A 1 1 0 0 0 38 39 z M 42 39 A 1 1 0 0 0 41 40 A 1 1 0 0 0 42 41 A 1 1 0 0 0 43 40 A 1 1 0 0 0 42 39 z M 46 39 A 1 1 0 0 0 45 40 A 1 1 0 0 0 46 41 A 1 1 0 0 0 47 40 A 1 1 0 0 0 46 39 z M 50 39 A 1 1 0 0 0 49 40 A 1 1 0 0 0 50 41 A 1 1 0 0 0 51 40 A 1 1 0 0 0 50 39 z M 54 39 A 1 1 0 0 0 53 40 A 1 1 0 0 0 54 41 A 1 1 0 0 0 55 40 A 1 1 0 0 0 54 39 z M 58 39 A 1 1 0 0 0 57 40 A 1 1 0 0 0 58 41 A 1 1 0 0 0 59 40 A 1 1 0 0 0 58 39 z M 45 46 L 45 48 L 46.841797 48 C 47.502797 47.263 48.234344 46.594 49.027344 46 L 45 46 z M 58.001953 46 C 51.384953 46 46.001953 51.383 46.001953 58 C 46.001953 64.617 51.384953 70 58.001953 70 C 60.950953 70 63.650188 68.925297 65.742188 67.154297 L 68.605469 70.019531 L 68.568359 70.056641 C 67.812359 70.811641 67.812359 72.040875 68.568359 72.796875 L 75.205078 79.433594 C 75.571078 79.799594 76.057219 80 76.574219 80 C 77.091219 80 77.580312 79.797641 77.945312 79.431641 L 79.433594 77.943359 C 80.189594 77.188359 80.188594 75.958125 79.433594 75.203125 L 72.798828 68.568359 C 72.064828 67.836359 70.786641 67.836359 70.056641 68.568359 L 70.019531 68.605469 L 67.15625 65.740234 C 68.92725 63.648234 70.001953 60.949 70.001953 58 C 70.001953 51.383 64.618953 46 58.001953 46 z M 58.001953 48 C 63.515953 48 68.001953 52.486 68.001953 58 C 68.001953 63.514 63.515953 68 58.001953 68 C 52.487953 68 48.001953 63.514 48.001953 58 C 48.001953 52.486 52.487953 48 58.001953 48 z M 22 54 A 1 1 0 0 0 21 55 A 1 1 0 0 0 22 56 A 1 1 0 0 0 23 55 A 1 1 0 0 0 22 54 z M 26 54 A 1 1 0 0 0 25 55 A 1 1 0 0 0 26 56 A 1 1 0 0 0 27 55 A 1 1 0 0 0 26 54 z M 30 54 A 1 1 0 0 0 29 55 A 1 1 0 0 0 30 56 A 1 1 0 0 0 31 55 A 1 1 0 0 0 30 54 z M 34 54 A 1 1 0 0 0 33 55 A 1 1 0 0 0 34 56 A 1 1 0 0 0 35 55 A 1 1 0 0 0 34 54 z M 38 54 A 1 1 0 0 0 37 55 A 1 1 0 0 0 38 56 A 1 1 0 0 0 39 55 A 1 1 0 0 0 38 54 z M 42 54 A 1 1 0 0 0 41 55 A 1 1 0 0 0 42 56 A 1 1 0 0 0 43 55 A 1 1 0 0 0 42 54 z M 71.382812 69.982422 L 78.019531 76.529297 L 76.617188 78.017578 L 70.025391 71.425781 L 71.382812 69.982422 z"/></svg>