<svg fill="currentColor" xmlns="http://www.w3.org/2000/svg"  viewBox="0 0 512 512" width="40px" height="40px"><path d="M 255.29883 16.009766 A 24 24 0 0 0 232 40 A 25.045 25.045 0 0 0 232.2793 43.689453 L 45.980469 144 L 32 144 A 24.032 24.032 0 0 0 8 168 L 8 472 A 24.032 24.032 0 0 0 32 496 L 480 496 A 24.032 24.032 0 0 0 504 472 L 504 168 A 24.032 24.032 0 0 0 480 144 L 466.01953 144 L 279.7207 43.689453 A 25.045 25.045 0 0 0 280 40 A 24 24 0 0 0 255.29883 16.009766 z M 256 32 A 8 8 0 1 1 248 40 A 8.011 8.011 0 0 1 256 32 z M 239.88086 57.769531 A 23.97 23.97 0 0 0 272.11914 57.769531 L 432.26953 144 L 79.730469 144 L 239.88086 57.769531 z M 35.310547 160 L 476.68945 160 L 460.68945 176 L 51.310547 176 L 35.310547 160 z M 24 171.31055 L 40 187.31055 L 40 452.68945 L 24 468.68945 L 24 171.31055 z M 488 171.31055 L 488 468.68945 L 472 452.68945 L 472 187.31055 L 488 171.31055 z M 56 192 L 456 192 L 456 421.94922 L 318.33984 243.11914 A 8 8 0 0 0 305.66016 243.11914 L 201.67969 378.19922 L 150.49023 307.32031 A 8 8 0 0 0 137.50977 307.32031 L 56 420.17969 L 56 192 z M 145.66406 208.03516 A 40 40 0 0 0 104 248 A 40.045 40.045 0 0 0 144 288 A 40 40 0 0 0 145.66406 208.03516 z M 144 224 A 24 24 0 1 1 120 248 A 24.028 24.028 0 0 1 144 224 z M 312 261.11914 L 455.85938 448 L 252.08984 448 L 211.46094 391.74023 L 312 261.11914 z M 144 325.66016 L 232.34961 448 L 56 448 L 56 447.50977 L 144 325.66016 z M 51.310547 464 L 460.68945 464 L 476.68945 480 L 35.310547 480 L 51.310547 464 z"/></svg>